<?xml version="1.0" encoding="UTF-8" standalone="no"?>
<svg
   xmlns:dc="http://purl.org/dc/elements/1.1/"
   xmlns:cc="http://creativecommons.org/ns#"
   xmlns:rdf="http://www.w3.org/1999/02/22-rdf-syntax-ns#"
   xmlns:svg="http://www.w3.org/2000/svg"
   xmlns="http://www.w3.org/2000/svg"
   xmlns:sodipodi="http://sodipodi.sourceforge.net/DTD/sodipodi-0.dtd"
   xmlns:inkscape="http://www.inkscape.org/namespaces/inkscape"
   version="1.0"
   width="527.85638pt"
   height="357.21939pt"
   viewBox="0 0 527.85638 357.21939"
   preserveAspectRatio="xMidYMid meet"
   id="svg8"
   sodipodi:docname="cam-disconnected.svg"
   inkscape:version="0.92.5 (2060ec1f9f, 2020-04-08)">
  <metadata
     id="metadata14">
    <rdf:RDF>
      <cc:Work
         rdf:about="">
        <dc:format>image/svg+xml</dc:format>
        <dc:type
           rdf:resource="http://purl.org/dc/dcmitype/StillImage" />
        <dc:title></dc:title>
      </cc:Work>
    </rdf:RDF>
  </metadata>
  <defs
     id="defs12" />
  <sodipodi:namedview
     pagecolor="#ffffff"
     bordercolor="#666666"
     borderopacity="1"
     objecttolerance="10"
     gridtolerance="10"
     guidetolerance="10"
     inkscape:pageopacity="0"
     inkscape:pageshadow="2"
     inkscape:window-width="3840"
     inkscape:window-height="2070"
     id="namedview10"
     showgrid="false"
     fit-margin-top="0"
     fit-margin-left="0"
     fit-margin-right="0"
     fit-margin-bottom="0"
     inkscape:zoom="1.9896564"
     inkscape:cx="539.04387"
     inkscape:cy="40.722077"
     inkscape:window-x="0"
     inkscape:window-y="27"
     inkscape:window-maximized="1"
     inkscape:current-layer="svg8" />
  <g
     transform="matrix(0.1,0,0,-0.1,-133.0718,497.71938)"
     id="g6"
     style="fill:#000000;stroke:none;fill-opacity:1">
    <path
       d="m 3133,4971 c -51,-13 -119,-58 -157,-104 -37,-46 -76,-125 -121,-244 l -27,-73 h -329 -329 v 56 c 0,67 -20,114 -59,137 -40,23 -366,25 -410,2 -38,-19 -61,-71 -61,-138 v -54 l -45,-6 c -94,-13 -187,-83 -236,-177 l -24,-45 -3,-1329 c -3,-1485 -7,-1379 68,-1475 28,-35 59,-59 107,-83 l 68,-33 h 2395 2395 l 68,33 c 48,24 79,48 107,83 75,96 71,-10 68,1475 l -3,1329 -27,50 c -30,58 -99,126 -155,152 -35,17 -90,18 -683,23 l -644,5 -32,107 c -18,58 -40,121 -49,138 -27,52 -95,120 -150,148 l -50,27 -825,2 c -454,1 -839,-2 -857,-6 z m 3156,-601 c 171,-87 129,-340 -61,-366 -180,-25 -294,205 -162,328 66,61 150,76 223,38 z M 4278,4236 c 374,-94 676,-331 861,-677 157,-293 188,-671 84,-1003 -103,-329 -355,-623 -671,-780 -359,-180 -806,-179 -1167,1 -255,127 -482,359 -604,616 -148,311 -166,673 -50,1004 120,343 398,635 739,776 181,75 310,97 535,92 141,-3 187,-8 273,-29 z"
       id="path2"
       inkscape:connector-curvature="0"
       style="fill:#000000;fill-opacity:1" />
    <path
       d="m 3845,3820 c -298,-47 -560,-248 -675,-518 -53,-124 -64,-185 -64,-342 -1,-167 13,-235 75,-368 145,-314 446,-506 789,-506 346,1 644,192 789,506 62,133 76,201 75,368 0,157 -11,218 -64,342 -41,96 -93,173 -174,257 -161,167 -360,256 -591,266 -55,2 -127,0 -160,-5 z"
       id="path4"
       inkscape:connector-curvature="0"
       style="fill:#000000;fill-opacity:1" />
  </g>
  <path
     style="fill:none;fill-rule:evenodd;stroke:#ff1111;stroke-width:22.4999998;stroke-linecap:butt;stroke-linejoin:miter;stroke-opacity:1;stroke-miterlimit:4;stroke-dasharray:none"
     d="M 0.37694951,1.0020931 526.59846,356.84243"
     id="path859"
     inkscape:connector-curvature="0" />
  <path
     style="fill:none;fill-rule:evenodd;stroke:#ff1111;stroke-width:22.4999998;stroke-linecap:butt;stroke-linejoin:miter;stroke-miterlimit:4;stroke-dasharray:none;stroke-opacity:1"
     d="M 526.59846,1.00211 0.37697,356.84243"
     id="path859-3"
     inkscape:connector-curvature="0" />
</svg>
