<?xml version="1.0" encoding="UTF-8" standalone="no"?>
<svg
   xmlns:dc="http://purl.org/dc/elements/1.1/"
   xmlns:cc="http://creativecommons.org/ns#"
   xmlns:rdf="http://www.w3.org/1999/02/22-rdf-syntax-ns#"
   xmlns:svg="http://www.w3.org/2000/svg"
   xmlns="http://www.w3.org/2000/svg"
   xmlns:sodipodi="http://sodipodi.sourceforge.net/DTD/sodipodi-0.dtd"
   xmlns:inkscape="http://www.inkscape.org/namespaces/inkscape"
   id="svg"
   version="1.1"
   width="400"
   height="398.69565217391306"
   viewBox="0, 0, 400,398.69565217391306"
   sodipodi:docname="gps-connected.svg"
   inkscape:version="0.92.5 (2060ec1f9f, 2020-04-08)">
  <metadata
     id="metadata13">
    <rdf:RDF>
      <cc:Work
         rdf:about="">
        <dc:format>image/svg+xml</dc:format>
        <dc:type
           rdf:resource="http://purl.org/dc/dcmitype/StillImage" />
        <dc:title />
      </cc:Work>
    </rdf:RDF>
  </metadata>
  <defs
     id="defs11" />
  <sodipodi:namedview
     pagecolor="#ffffff"
     bordercolor="#666666"
     borderopacity="1"
     objecttolerance="10"
     gridtolerance="10"
     guidetolerance="10"
     inkscape:pageopacity="0"
     inkscape:pageshadow="2"
     inkscape:window-width="3840"
     inkscape:window-height="2070"
     id="namedview9"
     showgrid="false"
     inkscape:zoom="1.4093185"
     inkscape:cx="454.93126"
     inkscape:cy="89.321737"
     inkscape:window-x="0"
     inkscape:window-y="27"
     inkscape:window-maximized="1"
     inkscape:current-layer="svg" />
  <path
     style="fill:#96d53f;fill-rule:evenodd;stroke:none;fill-opacity:1"
     inkscape:connector-curvature="0"
     d="M 101.781,16.863 85.72,32.928 132.599,79.774 c 25.783,25.765 47.037,46.9 47.23,46.966 0.194,0.066 7.572,-7.088 16.397,-15.897 L 212.272,94.825 165.259,47.811 C 139.402,21.954 118.156,0.798 118.045,0.798 c -0.111,0 -7.43,7.229 -16.264,16.065 m 151.556,69.085 c -2.466,2.529 -4.484,4.729 -4.484,4.889 0,0.16 13.639,13.93 30.309,30.598 l 30.308,30.307 4.686,-4.686 4.685,-4.685 -30.51,-30.51 -30.51,-30.51 -4.484,4.597 m -50.332,31.884 -32.055,32.057 1.187,1.327 c 0.653,0.729 6.965,7.105 14.027,14.167 7.061,7.062 12.839,12.988 12.839,13.168 0,0.18 -1.766,2.087 -3.925,4.238 l -3.926,3.911 -2.555,-1.948 c -26.302,-20.05 -60.654,-24.188 -79.551,-9.585 -12.184,9.417 -18.435,26.41 -15.995,43.488 l 0.329,2.304 5.454,-0.11 c 3.479,-0.071 5.427,-0.261 5.382,-0.524 -3.883,-22.545 5.358,-35.55 23.677,-33.322 43.943,5.343 100.537,75.389 82.313,101.877 -4.428,6.436 -15.6,9.218 -29.249,7.283 l -3.489,-0.495 v 4.879 4.879 l 2.293,0.328 c 24.68,3.528 45.498,-9.226 51.215,-31.377 4.686,-18.157 -2.18,-45.063 -16.094,-63.068 -0.618,-0.8 -1.123,-1.611 -1.123,-1.803 0,-0.485 7.7,-8.112 8.182,-8.104 0.216,0.004 6.646,6.285 14.29,13.958 7.644,7.674 14.015,13.952 14.158,13.952 0.144,0 14.665,-14.405 32.271,-32.011 l 32.009,-32.012 -39.707,-39.673 c -21.839,-21.821 -39.751,-39.711 -39.804,-39.757 -0.054,-0.046 -14.522,14.342 -32.153,31.973 m 86.226,86.456 -16.049,16.053 46.959,46.958 c 25.827,25.827 47.138,46.958 47.357,46.957 0.219,0 7.575,-7.18 16.346,-15.955 l 15.948,-15.955 -47.054,-47.055 c -25.879,-25.881 -47.145,-47.056 -47.256,-47.056 -0.111,0 -7.424,7.224 -16.251,16.053 M 0,233.407 c 0,9.706 3.438,34.455 5.765,41.499 0.302,0.916 1.302,4.087 2.222,7.048 18.394,59.191 70.416,104.119 131.594,113.649 7.274,1.133 20.988,2.464 23.955,2.324 l 2.566,-0.12 0.106,-9.671 0.107,-9.671 h -3.931 c -51.587,0 -107.032,-35.59 -128.007,-82.166 -0.639,-1.419 -1.798,-3.926 -2.576,-5.571 -2.73,-5.776 -5.999,-15.526 -8.089,-24.128 -2.482,-10.209 -4.171,-23.161 -4.171,-31.984 v -2.911 H 9.771 0 v 1.702 m 45.862,1.313 c 0,38.635 22.516,78.144 56.573,99.267 18.252,11.321 40.899,18.157 60.154,18.157 h 3.727 l -0.107,-9.472 -0.107,-9.472 -4.587,-0.253 C 120.805,330.7 86.553,305.939 71.669,267.996 68.012,258.675 65.219,245.016 64.9,234.895 l -0.094,-2.991 -9.472,-0.107 -9.472,-0.107 v 3.03 m 47.585,1.272 c 2.141,36.915 31.706,66.651 68.176,68.57 l 4.693,0.246 -0.107,-9.532 -0.107,-9.533 -3.819,-0.273 c -26.305,-1.877 -48.09,-23.739 -49.701,-49.877 l -0.24,-3.888 h -9.572 -9.572 l 0.249,4.287 m 50.122,-2.341 c 0,9.692 10.344,20.302 20.309,20.831 l 2.136,0.113 10e-4,-11.345 v -11.346 l -11.223,-0.106 -11.223,-0.106 v 1.959"
     id="path0" />
</svg>
